<?xml version="1.0" standalone="no"?>
<!DOCTYPE svg PUBLIC "-//W3C//DTD SVG 20010904//EN"
 "http://www.w3.org/TR/2001/REC-SVG-20010904/DTD/svg10.dtd">
<svg version="1.0" xmlns="http://www.w3.org/2000/svg"
 width="512.000000pt" height="512.000000pt" viewBox="0 0 512.000000 512.000000"
 preserveAspectRatio="xMidYMid meet">
<metadata>
Created by potrace 1.14, written by Peter Selinger 2001-2017
</metadata>
<g transform="translate(0.000000,512.000000) scale(0.100000,-0.100000)"
fill="#000000" stroke="none">
<path d="M2954 4671 c-22 -10 -56 -37 -75 -60 -31 -36 -41 -62 -78 -208 -23
-93 -44 -176 -46 -186 -2 -10 -7 -27 -10 -37 -3 -10 -7 -27 -9 -37 -2 -10 -34
-137 -71 -283 -37 -146 -68 -272 -70 -280 -2 -8 -20 -80 -40 -160 -20 -80 -38
-156 -41 -169 -3 -14 -7 -28 -9 -31 -2 -4 -6 -20 -9 -36 -3 -16 -22 -92 -41
-169 -20 -77 -37 -147 -39 -155 -2 -8 -34 -134 -71 -280 -37 -146 -69 -276
-71 -289 -3 -14 -7 -28 -9 -31 -2 -4 -7 -20 -9 -36 -3 -16 -22 -92 -41 -169
-20 -77 -38 -150 -41 -162 -2 -13 -34 -139 -70 -280 -36 -142 -68 -269 -70
-282 -3 -14 -7 -28 -9 -31 -2 -4 -7 -20 -9 -37 -3 -17 -36 -147 -72 -289 -76
-297 -86 -372 -56 -430 83 -162 319 -156 387 10 9 22 524 2068 651 2585 2 9
17 70 34 136 16 66 32 133 35 149 3 16 8 32 10 36 2 3 6 17 9 31 3 13 39 161
81 329 43 168 79 312 81 320 2 8 20 80 40 160 20 80 35 165 35 189 -6 145
-164 242 -297 182z"/>
<path d="M1403 4028 c-43 -21 -1329 -1299 -1369 -1360 -31 -49 -39 -105 -24
-170 13 -52 21 -61 674 -716 364 -365 680 -674 703 -688 174 -105 379 79 299
270 -11 27 -187 209 -591 613 -316 317 -575 578 -575 580 0 2 258 262 573 578
365 364 581 587 592 612 23 48 24 137 2 180 -55 106 -182 150 -284 101z"/>
<path d="M3558 4038 c-40 -11 -100 -63 -123 -108 -22 -42 -25 -106 -9 -160 13
-44 64 -98 594 -628 319 -319 580 -582 580 -585 0 -3 -258 -263 -574 -579
-315 -316 -581 -588 -590 -605 -39 -77 -22 -184 41 -245 63 -61 127 -77 212
-52 55 16 68 28 732 692 663 664 676 678 688 729 13 54 11 97 -8 148 -7 19
-271 290 -689 706 -585 584 -683 677 -718 687 -48 14 -84 14 -136 0z"/>
</g>
</svg>
